<?xml version="1.0" encoding="utf-8"?>
<!-- Generator: Adobe Illustrator 23.1.0, SVG Export Plug-In . SVG Version: 6.00 Build 0)  -->
<svg version="1.1" id="Layer_1" xmlns="http://www.w3.org/2000/svg" xmlns:xlink="http://www.w3.org/1999/xlink" x="0px" y="0px"
	 viewBox="0 0 750 500" style="enable-background:new 0 0 750 500;" xml:space="preserve">
<style type="text/css">
	.st0{fill:none;}
	.st1{opacity:0.43;fill:none;enable-background:new    ;}
	.st2{stroke:#00FFFF;stroke-width:1.5;}
	.st3{stroke:#00FFFF;stroke-width:1.5;stroke-miterlimit:3.9999;}
	.st4{stroke:#00FFFF;stroke-width:1.5001;stroke-miterlimit:4.0002;}
	.st5{stroke:#00FFFF;stroke-width:1.5;stroke-miterlimit:4;}
	.st6{opacity:0.45;}
	.st7{fill:#A09797;}
	.st8{fill:url(#SVGID_1_);}
	.st9{opacity:0.19;fill:url(#SVGID_2_);enable-background:new    ;}
	.st10{fill:#FFFFFF;}
	.st11{opacity:0.16;}
	.st12{opacity:0.62;}
	.st13{opacity:0.44;}
	.st14{opacity:0.66;fill:#A09797;enable-background:new    ;}
	.st15{opacity:0.35;}
	.st16{opacity:0.25;}
	.st17{fill:url(#SVGID_3_);}
	.st18{fill:url(#SVGID_4_);}
</style>
<g id="BACKGROUND2">
	<g>
		<rect class="st0" width="750" height="500"/>
		<g>
			<ellipse class="st1" cx="375.9" cy="246" rx="209.7" ry="209.9"/>
			<g>
				<g>
					<path class="st2" d="M375.9,402.6c-86.2,0-156.4-70.2-156.4-156.6S289.6,89.5,375.9,89.5c86.2,0,156.4,70.2,156.4,156.6
						S462.1,402.6,375.9,402.6z M375.9,90.5c-85.7,0-155.4,69.8-155.4,155.6s69.7,155.6,155.4,155.6s155.4-69.8,155.4-155.6
						S461.6,90.5,375.9,90.5z"/>
					<path class="st2" d="M375.9,65.6c-41.1,0-81.3,14.2-113.2,40c-31.3,25.3-53.5,60.8-62.5,99.9h-32.4v74.3l-32.7,32.7H0v1h135.5
						l33.3-33.3v-73.7H201l0.1-0.4c8.9-39,31-74.4,62.2-99.7C295,80.7,335,66.6,375.9,66.6c81.5,0,152.8,55,173.4,133.9l1-0.3
						C529.5,120.9,457.8,65.6,375.9,65.6z"/>
					<rect y="329" class="st2" width="31.3" height="1"/>
					<path class="st2" d="M292.4,406c-23.5-12.3-44.3-30-60.3-51.2H122.3L97.5,330H53.9v-1h44l24.8,24.8h109.8l0.2,0.2
						c15.9,21.2,36.7,38.8,60.1,51.1L292.4,406z"/>
					<path class="st2" d="M251.5,134.3c-27.5,30.6-42.6,70.1-42.8,111.3h-62.1l-25,25H0v1h122.1l25-25h62.7v-0.5
						c0-41.1,15.1-80.5,42.5-111.1L251.5,134.3z"/>
					<path class="st2" d="M750,306.6H594.7l-30.1,30.2h-49.4l-0.1,0.2c-30.8,47.2-82.9,75.4-139.1,75.4c-31.3,0-61.7-8.7-88.1-25.3
						c-25.7-16.1-46.4-38.9-60.1-65.8l-0.9,0.5c13.8,27.1,34.7,50,60.5,66.2c26.5,16.6,57.2,25.4,88.6,25.4
						c56.5,0,108.8-28.3,139.8-75.6H565l30.1-30.2H750V306.6z"/>
					<path class="st2" d="M543,246.1h-1c0-91.7-74.5-166.3-166.1-166.3c-47.1,0-92.1,20.1-123.6,55.2l-0.7-0.7
						c31.7-35.3,77-55.5,124.4-55.5C468,78.7,543,153.8,543,246.1z"/>
					<ellipse class="st2" cx="226.7" cy="319" rx="4.7" ry="4.7"/>
					<ellipse class="st2" cx="542.5" cy="245.8" rx="4.7" ry="4.7"/>
					<ellipse class="st2" cx="652.4" cy="218.4" rx="4.7" ry="4.7"/>
					<ellipse class="st2" cx="689" cy="255.5" rx="4.7" ry="4.7"/>
					<ellipse class="st2" cx="689" cy="175.8" rx="4.7" ry="4.7"/>
					<g>
						<rect x="369.6" y="423.3" class="st2" width="12.6" height="7.7"/>
					</g>
					<g>
						
							<rect x="393.1" y="421.7" transform="matrix(0.9914 -0.1307 0.1307 0.9914 -52.192 55.8529)" class="st3" width="12.6" height="7.7"/>
					</g>
					<g>
						<polygon class="st2" points="427.7,415.6 415.5,418.9 417.5,426.3 429.7,423.1 						"/>
					</g>
					<g>
						<polygon class="st2" points="488.4,382.9 478.4,390.6 483.1,396.7 493.1,389 						"/>
					</g>
					<g>
						<polygon class="st2" points="505.2,367 496.3,375.9 501.8,381.4 510.6,372.5 						"/>
					</g>
					<g>
						<polygon class="st2" points="519.8,349.1 512.1,359.1 518.3,363.8 525.9,353.8 						"/>
					</g>
					<g>
						<polygon class="st2" points="541.4,308.3 536.6,320 543.7,322.9 548.6,311.3 						"/>
					</g>
					<g>
						<polygon class="st2" points="548.1,286.2 544.8,298.3 552.3,300.3 555.5,288.2 						"/>
					</g>
					<g>
						
							<rect x="193.1" y="263.8" transform="matrix(0.9915 -0.1304 0.1304 0.9915 -33.5332 27.99)" class="st4" width="7.7" height="12.6"/>
						
							<rect x="550.9" y="216.6" transform="matrix(0.9915 -0.1304 0.1304 0.9915 -24.3243 74.2457)" class="st4" width="7.7" height="12.6"/>
					</g>
					<g>
						<polygon class="st2" points="196.2,288.2 199.5,300.3 207,298.3 203.7,286.2 						"/>
					</g>
					<g>
						<polygon class="st2" points="299.5,414.5 311.2,419.4 314.1,412.2 302.5,407.4 						"/>
					</g>
					<g>
						
							<rect x="348.5" y="419.3" transform="matrix(0.1307 -0.9914 0.9914 0.1307 -115.6564 719.36)" class="st3" width="7.7" height="12.6"/>
					</g>
					
						<ellipse transform="matrix(0.9951 -9.853771e-02 9.853771e-02 0.9951 -34.203 13.8785)" class="st2" cx="123.4" cy="353.2" rx="4.7" ry="4.7"/>
					<ellipse class="st2" cx="135.3" cy="311.8" rx="4.7" ry="4.7"/>
					<ellipse class="st2" cx="121.6" cy="271.1" rx="4.7" ry="4.7"/>
					<ellipse class="st2" cx="121.6" cy="215.7" rx="4.7" ry="4.7"/>
					<ellipse class="st2" cx="167.8" cy="279.5" rx="4.7" ry="4.7"/>
					<ellipse class="st2" cx="168.4" cy="205.9" rx="4.7" ry="4.7"/>
					<polygon class="st2" points="122.3,216.4 122.2,216.3 0,216.3 0,217.3 121.7,217.3 146.5,246.4 147.3,245.7 					"/>
					<path class="st2" d="M132.5,182.9c-7.5,0-13.6-6.1-13.6-13.6s6.1-13.6,13.6-13.6s13.6,6.1,13.6,13.6
						C146.1,176.8,140,182.9,132.5,182.9z M132.5,156.8c-6.9,0-12.6,5.6-12.6,12.6c0,6.9,5.6,12.6,12.6,12.6
						c6.9,0,12.6-5.6,12.6-12.6C145.1,162.4,139.4,156.8,132.5,156.8z"/>
					<ellipse class="st2" cx="132.5" cy="169.3" rx="6.8" ry="6.8"/>
					
						<rect x="151.1" y="165.3" transform="matrix(0.7075 -0.7067 0.7067 0.7075 -89.2828 162.429)" class="st5" width="1" height="47.6"/>
					<g>
						<g>
							<g>
								<rect x="23.9" y="276.3" class="st2" width="2.3" height="22"/>
								<rect x="31.1" y="276.3" class="st2" width="2.3" height="22"/>
								<rect x="38.3" y="276.3" class="st2" width="2.3" height="22"/>
								<rect x="45.4" y="276.3" class="st2" width="2.3" height="22"/>
								<rect x="52.6" y="276.3" class="st2" width="2.3" height="22"/>
								<rect x="59.8" y="276.3" class="st2" width="2.3" height="22"/>
								<rect x="67" y="276.3" class="st2" width="2.3" height="22"/>
							</g>
							<g>
								<rect x="74" y="276.3" class="st2" width="2.3" height="22"/>
								<rect x="81.2" y="276.3" class="st2" width="2.3" height="22"/>
								<rect x="88.4" y="276.3" class="st2" width="2.3" height="22"/>
								<rect x="95.6" y="276.3" class="st2" width="2.3" height="22"/>
								<rect x="102.8" y="276.3" class="st2" width="2.3" height="22"/>
								<rect x="110" y="276.3" class="st2" width="2.3" height="22"/>
							</g>
						</g>
						<g>
							<g>
								<rect x="2.3" y="276.3" class="st2" width="2.3" height="22"/>
								<rect x="9.4" y="276.3" class="st2" width="2.3" height="22"/>
								<rect x="16.6" y="276.3" class="st2" width="2.3" height="22"/>
							</g>
						</g>
					</g>
					<g>
						<rect x="574.8" y="183.9" class="st2" width="2.3" height="22"/>
						<rect x="582" y="183.9" class="st2" width="2.3" height="22"/>
						<rect x="589.2" y="183.9" class="st2" width="2.3" height="22"/>
						<rect x="596.4" y="183.9" class="st2" width="2.3" height="22"/>
						<rect x="603.6" y="183.9" class="st2" width="2.3" height="22"/>
						<rect x="610.7" y="183.9" class="st2" width="2.3" height="22"/>
						<rect x="617.9" y="183.9" class="st2" width="2.3" height="22"/>
					</g>
					<g>
						<g>
							<rect x="651" y="272.9" class="st2" width="2.3" height="22"/>
							<rect x="658.2" y="272.9" class="st2" width="2.3" height="22"/>
							<rect x="665.4" y="272.9" class="st2" width="2.3" height="22"/>
							<rect x="672.5" y="272.9" class="st2" width="2.3" height="22"/>
							<rect x="679.7" y="272.9" class="st2" width="2.3" height="22"/>
							<rect x="686.9" y="272.9" class="st2" width="2.3" height="22"/>
							<rect x="694.1" y="272.9" class="st2" width="2.3" height="22"/>
						</g>
						<g>
							<rect x="701.1" y="272.9" class="st2" width="2.3" height="22"/>
							<rect x="708.3" y="272.9" class="st2" width="2.3" height="22"/>
							<rect x="715.5" y="272.9" class="st2" width="2.3" height="22"/>
							<rect x="722.7" y="272.9" class="st2" width="2.3" height="22"/>
							<rect x="729.9" y="272.9" class="st2" width="2.3" height="22"/>
						</g>
						<g>
							<rect x="643.7" y="272.9" class="st2" width="2.3" height="22"/>
						</g>
					</g>
					<g>
						<polygon class="st2" points="74.2,204.3 68.7,207.6 74.2,211 						"/>
						<polygon class="st2" points="84.5,204.3 78.9,207.6 84.5,211 						"/>
						<polygon class="st2" points="94.8,204.3 89.2,207.6 94.8,211 						"/>
						<polygon class="st2" points="105,204.3 99.5,207.6 105,211 						"/>
					</g>
					<g>
						<polygon class="st2" points="683,364.7 678.6,357.3 674.2,364.7 						"/>
						<polygon class="st2" points="683,378.4 678.6,371 674.2,378.4 						"/>
						<polygon class="st2" points="683,392.1 678.6,384.7 674.2,392.1 						"/>
						<polygon class="st2" points="683,405.7 678.6,398.3 674.2,405.7 						"/>
					</g>
					<g>
						<polygon class="st2" points="671.1,116.7 673.2,108.3 664.9,110.4 						"/>
						<polygon class="st2" points="661.5,126.4 663.6,118 655.2,120.1 						"/>
						<polygon class="st2" points="651.9,136 654,127.7 645.6,129.8 						"/>
					</g>
					<g>
						<polygon class="st2" points="193,348 201.1,344 193,340 						"/>
						<polygon class="st2" points="178,348 186.1,344 178,340 						"/>
						<polygon class="st2" points="163,348 171.1,344 163,340 						"/>
						<polygon class="st2" points="148,348 156.2,344 148,340 						"/>
					</g>
					<g>
						<polygon class="st2" points="733.9,221.6 742,217.6 733.9,213.6 						"/>
						<polygon class="st2" points="718.9,221.6 727.1,217.6 718.9,213.6 						"/>
						<polygon class="st2" points="704,221.6 712.1,217.6 704,213.6 						"/>
						<polygon class="st2" points="689,221.6 697.1,217.6 689,213.6 						"/>
					</g>
					<g>
						<polygon class="st2" points="43.4,204.3 37.8,207.6 43.4,211 						"/>
						<polygon class="st2" points="53.6,204.3 48.1,207.6 53.6,211 						"/>
						<polygon class="st2" points="63.9,204.3 58.3,207.6 63.9,211 						"/>
					</g>
					<g>
						<rect x="80.7" y="353.3" class="st2" width="11.1" height="11.2"/>
						<path class="st2" d="M92.3,365H80.2v-12.2h12.1C92.3,352.8,92.3,365,92.3,365z M81.2,364h10.1v-10.2H81.2V364z"/>
					</g>
					<g>
						<rect x="102.1" y="368.3" class="st2" width="11.1" height="11.2"/>
						<path class="st2" d="M113.7,380h-12.1v-12.2h12.1V380z M102.6,379h10.1v-10.2h-10.1V379z"/>
					</g>
					<g>
						<rect x="195" y="368.3" class="st2" width="11.1" height="11.2"/>
						<path class="st2" d="M206.6,380h-12.1v-12.2h12.1V380z M195.5,379h10.1v-10.2h-10.1V379z"/>
					</g>
					<path class="st2" d="M155.1,380H143v-12.2h12.1V380z M144,379h10.1v-10.2H144V379z"/>
					<path class="st2" d="M180.8,380h-12.1v-12.2h12.1V380z M169.6,379h10.1v-10.2h-10.1V379z"/>
					<g>
						<rect x="546.9" y="127" class="st2" width="11.1" height="11.2"/>
						<path class="st2" d="M558.6,138.7h-12.1v-12.2h12.1V138.7z M547.4,137.7h10.1v-10.2h-10.1V137.7z"/>
					</g>
					<path class="st2" d="M610.1,138.7H598v-12.2h12.1V138.7z M598.9,137.7H609v-10.2h-10.1V137.7z"/>
					<g>
						<rect x="572.8" y="127" class="st2" width="11.1" height="11.2"/>
						<path class="st2" d="M584.4,138.7h-12.1v-12.2h12.1V138.7z M573.3,137.7h10.1v-10.2h-10.1V137.7z"/>
					</g>
					<polygon class="st2" points="106.6,216.4 68.1,255 0,255 0,256 68.5,256 107.3,217.1 					"/>
					<g>
						<ellipse class="st2" cx="221.3" cy="407" rx="5.7" ry="5.8"/>
						<circle class="st2" cx="199.7" cy="429.1" r="3.4"/>
						<circle class="st2" cx="209.6" cy="419" r="3.4"/>
					</g>
					<g>
						<path class="st2" d="M671.2,155.7c-1.9-1.9-1.9-4.9,0-6.8s4.9-1.9,6.8,0c1.9,1.9,1.9,4.9,0,6.8S673.1,157.6,671.2,155.7z"/>
						<circle class="st2" cx="700.3" cy="152" r="2.8"/>
						<circle class="st2" cx="688.6" cy="152.2" r="2.8"/>
					</g>
					<path class="st2" d="M42.6,341.2c-6.5,0-11.8-5.3-11.8-11.9c0-6.5,5.3-11.9,11.8-11.9s11.8,5.3,11.8,11.9
						C54.5,335.9,49.1,341.2,42.6,341.2z M42.6,318.5c-6,0-10.8,4.9-10.8,10.9s4.9,10.9,10.8,10.9c6,0,10.8-4.9,10.8-10.9
						S48.6,318.5,42.6,318.5z"/>
					<circle class="st2" cx="53.7" cy="329.6" r="3"/>
					<circle class="st2" cx="31.6" cy="329.6" r="3"/>
					<polygon class="st2" points="0,255.3 50.8,255.3 39.8,244.3 0,244.3 					"/>
					<polygon class="st2" points="750,329.5 702.7,329.5 713.7,340.5 750,340.5 					"/>
					<path class="st2" d="M19.6,348.5c-2.9,0-5.2-2.4-5.2-5.3s2.4-5.3,5.2-5.3s5.2,2.4,5.2,5.3S22.5,348.5,19.6,348.5z M19.6,339
						c-2.3,0-4.2,1.9-4.2,4.3c0,2.3,1.9,4.3,4.2,4.3s4.2-1.9,4.2-4.3S21.9,339,19.6,339z"/>
					<g>
						<circle class="st2" cx="19.6" cy="358" r="3.6"/>
						<path class="st2" d="M19.6,362.1c-2.2,0-4.1-1.8-4.1-4.1s1.8-4.1,4.1-4.1c2.2,0,4.1,1.8,4.1,4.1S21.8,362.1,19.6,362.1z
							 M19.6,354.9c-1.7,0-3.1,1.4-3.1,3.1s1.4,3.1,3.1,3.1s3.1-1.4,3.1-3.1S21.2,354.9,19.6,354.9z"/>
					</g>
					<polygon class="st2" points="750,217.2 623.8,217.2 595.8,245.3 542.5,245.3 542.5,246.3 596.2,246.3 624.2,218.2 750,218.2 
											"/>
					
						<rect x="585.7" y="328.3" transform="matrix(0.7075 -0.7067 0.7067 0.7075 -81.9373 519.1409)" class="st5" width="1" height="60.5"/>
					<polygon class="st2" points="750,255.5 689,255.5 651.6,218 689.8,176.5 750,176.5 750,175.5 689.3,175.5 650.2,218 
						688.6,256.5 750,256.5 					"/>
					<path class="st2" d="M619.8,413.1c-10.5,0-19-8.5-19-19s8.5-19,19-19s19,8.5,19,19S630.2,413.1,619.8,413.1z M619.8,376.1
						c-9.9,0-18,8.1-18,18s8.1,18,18,18s18-8.1,18-18S629.7,376.1,619.8,376.1z"/>
					<ellipse class="st2" cx="619.8" cy="394.1" rx="9.7" ry="9.7"/>
					<path class="st2" d="M621.3,285.1c-6.6,0-12-5.4-12-12s5.4-12,12-12s12,5.4,12,12S627.9,285.1,621.3,285.1z M621.3,262.1
						c-6.1,0-11,4.9-11,11s4.9,11,11,11s11-4.9,11-11S627.4,262.1,621.3,262.1z"/>
					<ellipse class="st2" cx="621.3" cy="273.1" rx="6" ry="6"/>
					<polygon class="st2" points="750,329.3 662.1,329.3 640,307.1 639.3,307.9 661.6,330.3 750,330.3 					"/>
					
						<rect x="604.7" y="242" transform="matrix(0.7075 -0.7067 0.7067 0.7075 -3.1965 502.303)" class="st5" width="1" height="26.1"/>
					<g>
						<polygon class="st2" points="673.2,194.4 647.1,168.2 609.7,168.2 609.7,167.2 647.5,167.2 673.9,193.6 						"/>
						<g>
							<circle class="st2" cx="608.1" cy="167.7" r="2.7"/>
							<circle class="st2" cx="617.6" cy="167.7" r="2.7"/>
							<circle class="st2" cx="626.4" cy="167.7" r="2.7"/>
						</g>
					</g>
				</g>
				<g id="inner-circles">
					<g class="st6">
						<g>
							
								<rect x="354.5" y="97.5" transform="matrix(0.9914 -0.1307 0.1307 0.9914 -10.6763 47.608)" class="st7" width="5.7" height="15.3"/>
						</g>
						<g>
							
								<rect x="345.3" y="99" transform="matrix(0.9807 -0.1953 0.1953 0.9807 -14.1258 70.0477)" class="st7" width="5.7" height="15.3"/>
							
								<rect x="400.7" y="377.8" transform="matrix(0.9807 -0.1953 0.1953 0.9807 -67.5085 86.2358)" class="st7" width="5.7" height="15.3"/>
						</g>
						<g>
							<polygon class="st7" points="339.9,100.6 334.4,102.1 338.4,116.9 343.9,115.4 							"/>
							<polygon class="st7" points="413.4,375.2 407.9,376.7 411.9,391.5 417.4,390 							"/>
						</g>
						<g>
							<polygon class="st7" points="330.5,103.3 325.1,105.1 330,119.6 335.4,117.8 							"/>
							<polygon class="st7" points="421.8,372.5 416.4,374.3 421.3,388.8 426.7,387 							"/>
						</g>
						<g>
							<polygon class="st7" points="321.2,106.6 316,108.7 321.9,122.9 327.1,120.7 							"/>
							<polygon class="st7" points="429.9,369.2 424.7,371.4 430.5,385.5 435.8,383.4 							"/>
						</g>
						<g>
							<polygon class="st7" points="312.3,110.4 307.1,113 313.9,126.7 319,124.2 							"/>
							<polygon class="st7" points="437.8,365.4 432.7,367.9 439.5,381.7 444.6,379.2 							"/>
						</g>
						<g>
							<polygon class="st7" points="303.5,114.9 298.6,117.7 306.3,131 311.2,128.2 							"/>
							<polygon class="st7" points="445.5,361.1 440.6,363.9 448.2,377.2 453.2,374.4 							"/>
						</g>
						<g>
							
								<rect x="514.7" y="247.7" transform="matrix(6.533284e-02 -0.9979 0.9979 6.533284e-02 228.9591 755.1174)" class="st7" width="5.7" height="15.3"/>
						</g>
						<g>
							<rect x="510.2" y="243.2" class="st7" width="15.3" height="5.7"/>
						</g>
						<g>
							
								<rect x="509.9" y="233.9" transform="matrix(0.9979 -6.533284e-02 6.533284e-02 0.9979 -14.3616 34.3194)" class="st7" width="15.3" height="5.7"/>
						</g>
						<g>
							
								<rect x="227.4" y="261.7" transform="matrix(0.9915 -0.1304 0.1304 0.9915 -32.4921 32.9107)" class="st7" width="15.3" height="5.7"/>
							
								<rect x="508.9" y="224.6" transform="matrix(0.9915 -0.1304 0.1304 0.9915 -25.2521 69.3042)" class="st7" width="15.3" height="5.7"/>
						</g>
						<g>
							
								<rect x="228.9" y="270.9" transform="matrix(0.9808 -0.1949 0.1949 0.9808 -48.8231 51.3625)" class="st7" width="15.3" height="5.7"/>
							
								<rect x="507.5" y="215.5" transform="matrix(0.9808 -0.1949 0.1949 0.9808 -32.6711 104.5908)" class="st7" width="15.3" height="5.7"/>
						</g>
						<g>
							<polygon class="st7" points="230.6,282.1 232.1,287.6 246.9,283.6 245.4,278.1 							"/>
							<polygon class="st7" points="504.9,208.5 506.4,214 521.2,210 519.7,204.5 							"/>
						</g>
						<g>
							<polygon class="st7" points="233.3,291.5 235.1,296.9 249.6,292 247.8,286.6 							"/>
							<polygon class="st7" points="502.2,200.1 504,205.5 518.5,200.6 516.7,195.2 							"/>
						</g>
						<g>
							<polygon class="st7" points="236.5,300.8 238.7,306 252.9,300.1 250.7,294.9 							"/>
							<polygon class="st7" points="498.9,192 501.1,197.2 515.2,191.4 513,186.1 							"/>
						</g>
						<g>
							<polygon class="st7" points="240.4,309.8 242.9,314.9 256.7,308.1 254.2,303 							"/>
							<polygon class="st7" points="495.1,184 497.6,189.1 511.4,182.4 508.8,177.2 							"/>
						</g>
						<g>
							<polygon class="st7" points="244.9,318.5 247.7,323.4 261,315.8 258.1,310.8 							"/>
							<polygon class="st7" points="490.8,176.4 493.6,181.3 506.9,173.6 504.1,168.7 							"/>
						</g>
						<g>
							<polygon class="st7" points="486,169 489.1,173.7 501.9,165.2 498.7,160.5 							"/>
						</g>
						<g>
							<polygon class="st7" points="480.7,161.9 484.2,166.5 496.3,157.1 492.9,152.6 							"/>
						</g>
						<g>
							<polygon class="st7" points="475,155.3 478.7,159.5 490.3,149.4 486.5,145.1 							"/>
						</g>
						<g>
							<polygon class="st7" points="468.8,149 472.9,153 483.7,142.1 479.7,138.1 							"/>
						</g>
						<g>
							<polygon class="st7" points="462.3,143.1 466.6,146.8 476.7,135.3 472.4,131.5 							"/>
						</g>
						<g>
							<polygon class="st7" points="282.5,363.2 287,366.6 296.4,354.5 291.9,351 							"/>
							<polygon class="st7" points="455.4,137.6 459.9,141.1 469.2,128.9 464.7,125.5 							"/>
						</g>
						<g>
							<polygon class="st7" points="290.4,369 295.1,372.2 303.6,359.4 298.9,356.3 							"/>
							<polygon class="st7" points="448.1,132.7 452.9,135.8 461.4,123.1 456.7,119.9 							"/>
						</g>
						<g>
							<polygon class="st7" points="298.6,374.4 303.5,377.2 311.2,363.9 306.3,361.1 							"/>
							<polygon class="st7" points="440.6,128.2 445.5,131 453.2,117.7 448.2,114.9 							"/>
						</g>
						<g>
							<polygon class="st7" points="307.1,379.2 312.3,381.7 319,367.9 313.9,365.4 							"/>
						</g>
						<g>
							<polygon class="st7" points="316,383.4 321.2,385.5 327.1,371.4 321.9,369.2 							"/>
						</g>
						<g>
							<polygon class="st7" points="325.1,387 330.5,388.8 335.4,374.3 330,372.5 							"/>
						</g>
						<g>
							<polygon class="st7" points="334.4,390 339.9,391.5 343.9,376.7 338.4,375.2 							"/>
						</g>
						<g>
							
								<rect x="340.6" y="382.6" transform="matrix(0.1953 -0.9807 0.9807 0.1953 -97.8472 651.7278)" class="st7" width="15.3" height="5.7"/>
						</g>
						<path class="st7" d="M374.7,161.7l2.8,2.8c-0.8,0-1.6,0-2.4,0h-0.5v-2.8H374.7z"/>
					</g>
					<g>
						<g>
							<g>
								
									<image style="overflow:visible;opacity:0.2;enable-background:new    ;" width="318" height="318" xlink:href="DF32B64B.png"  transform="matrix(1 0 0 1 224 94)">
								</image>
								<g>
									
										<linearGradient id="SVGID_1_" gradientUnits="userSpaceOnUse" x1="480.8665" y1="152.4847" x2="290.7359" y2="339.8055" gradientTransform="matrix(1 0 0 -1 0 502)">
										<stop  offset="0" style="stop-color:#C9C0C0"/>
										<stop  offset="1" style="stop-color:#E5DFDF"/>
									</linearGradient>
									<ellipse class="st8" cx="375.9" cy="246.1" rx="143.5" ry="143.6"/>
								</g>
							</g>
							
								<radialGradient id="SVGID_2_" cx="382.2491" cy="248.1955" r="159.9144" gradientTransform="matrix(0.9989 0 0 -1 0.575 502)" gradientUnits="userSpaceOnUse">
								<stop  offset="0.8417" style="stop-color:#FFFFFF"/>
								<stop  offset="1" style="stop-color:#000000"/>
							</radialGradient>
							<ellipse class="st9" cx="375.9" cy="246.1" rx="143.5" ry="143.6"/>
							<path class="st10" d="M517.5,244.2c0,79.3-64.2,143.6-143.5,143.6c-38.8,0-75.3-16.7-101.1-41.8
								c26.1,26.9,62.6,43.6,103,43.6c79.2,0,143.5-64.3,143.5-143.6c0-40.4-16.7-77-43.6-103.1
								C500.8,168.8,517.5,205.3,517.5,244.2z"/>
						</g>
						<g class="st11">
							<g>
								<g>
									<path class="st7" d="M380.2,158.2h-8.6l-10.3-50h29.2L380.2,158.2z"/>
								</g>
								<g>
									<path class="st7" d="M390.5,382h-29.2l10.3-50h8.6L390.5,382z M362.5,381h26.7l-9.9-48h-7L362.5,381z"/>
								</g>
							</g>
							<g>
								<g>
									<path class="st7" d="M328.8,172l-0.3-0.3l-33.6-37.8l25.3-14.6l16,48.5L328.8,172z M296.5,134.1l32.5,36.6l6-3.5
										l-15.4-46.5L296.5,134.1z"/>
								</g>
								<g>
									<path class="st7" d="M431.7,371l-16-48.5l7.4-4.3l33.9,38.1L431.7,371z"/>
								</g>
							</g>
							<g>
								<g>
									<path class="st7" d="M298.6,205.3l-48.4-16.1l14.6-25.3l38.1,33.9L298.6,205.3z"/>
								</g>
								<g>
									<path class="st7" d="M487.1,326.2L449,292.3l4.3-7.4l48.4,16.1L487.1,326.2z"/>
								</g>
							</g>
							<g>
								<g>
									<path class="st7" d="M239.2,259.7v-29.2l49.9,10.3v8.6L239.2,259.7z M240.1,231.7v26.8l47.9-9.9v-7L240.1,231.7z"/>
								</g>
								<g>
									<path class="st7" d="M512.7,259.7l-49.9-10.3v-8.6l49.9-10.3V259.7z"/>
								</g>
							</g>
							<g>
								<g>
									<path class="st7" d="M264.8,326.2l-14.6-25.3l48.4-16.1l4.3,7.4L264.8,326.2z M251.7,301.4l13.4,23.2l36.6-32.6l-3.5-6
										L251.7,301.4z"/>
								</g>
								<g>
									<path class="st7" d="M453.3,205.3l-4.3-7.4l0.3-0.3l37.8-33.7l14.6,25.3L453.3,205.3z M450.2,198.1l3.5,6l46.5-15.4
										l-13.4-23.2L450.2,198.1z"/>
								</g>
							</g>
							<g>
								<g>
									<path class="st7" d="M320.2,371l-25.3-14.6l33.9-38.1l7.4,4.3L320.2,371z M296.5,356.1l23.2,13.4L335,323l-6-3.5
										L296.5,356.1z"/>
								</g>
								<g>
									<path class="st7" d="M423,172l-7.4-4.3l16-48.5l25.3,14.6L423,172z M416.8,167.2l6,3.5l32.5-36.6l-23.2-13.4L416.8,167.2z"
										/>
								</g>
							</g>
						</g>
						<g class="st12">
							<g>
								<path class="st7" d="M376,356.4v17.4h-4.2v-17.5c1.4,0,2.7,0.1,4.1,0.1H376z"/>
							</g>
							<g>
								<path class="st7" d="M392.6,372.4l-4.2,0.6l-2.2-17c1.4-0.1,2.8-0.3,4.2-0.5L392.6,372.4z"/>
							</g>
							<g>
								<polygon class="st7" points="408.9,368.9 404.8,370 400.5,353.6 396.5,338.9 400.6,337.8 404.6,352.6 								"/>
							</g>
							<g>
								<path class="st7" d="M333.9,144c-1.3,0.5-2.6,1.1-3.9,1.7l-6.9-16.7l3.9-1.6L333.9,144z"/>
								<polygon class="st7" points="424.6,363.3 420.7,364.9 414.3,349.5 408.4,335.1 412.3,333.5 418.3,347.9 								"/>
							</g>
							<g>
								<polygon class="st7" points="317.4,152.5 308.3,136.7 312,134.5 321,150.3 								"/>
								<polygon class="st7" points="439.5,355.6 435.8,357.8 427.6,343.5 419.7,329.9 423.4,327.7 431.3,341.5 								"/>
							</g>
							<g>
								<path class="st7" d="M309.1,158.2c-1.1,0.9-2.2,1.7-3.3,2.6l-11.3-14.7l3.4-2.6L309.1,158.2z"/>
							</g>
							<g>
								<path class="st7" d="M298.4,167.6c-1,1-2,2-3,3l-13.2-13.2l3-3L298.4,167.6z"/>
							</g>
							<g>
								<path class="st7" d="M288.9,178.2c-0.9,1.1-1.7,2.2-2.5,3.4l-15-11.5l2.6-3.4L288.9,178.2z"/>
								<path class="st7" d="M463.8,312.6c-0.8,1.1-1.7,2.2-2.6,3.3l-13-10l2.6-3.4L463.8,312.6z"/>
							</g>
							<g>
								<polygon class="st7" points="292.4,196.6 290.3,200.3 278.8,193.7 262.4,184.2 264.5,180.5 280.9,190 								"/>
								<polygon class="st7" points="471.9,300.3 457.5,292 455.4,295.7 469.7,304 								"/>
							</g>
							<g>
								<polygon class="st7" points="286.6,207.7 285,211.6 272.9,206.6 255.3,199.2 256.9,195.3 274.5,202.6 								"/>
								<path class="st7" d="M478.2,287.1c-0.5,1.3-1.1,2.6-1.7,3.9l-15.4-6.4l1.6-3.9L478.2,287.1z"/>
							</g>
							<g>
								<path class="st7" d="M282.3,219.4l-1.1,4.1l-7.5-2c0.3-1.4,0.7-2.7,1.1-4.1L282.3,219.4z"/>
							</g>
							<g>
								<polygon class="st7" points="272.1,230.6 279.6,231.6 279.1,235.8 271.6,234.8 								"/>
							</g>
							<g>
								<polygon class="st7" points="271,248.3 278.5,248.3 278.5,244 271,244 								"/>
							</g>
							<g>
								<path class="st7" d="M279.6,260.7l-7.5,1c-0.2-1.4-0.4-2.8-0.5-4.2l7.5-1L279.6,260.7z"/>
							</g>
							<g>
								<polygon class="st7" points="282.3,272.9 269.8,276.2 251.3,281.2 250.2,277.1 268.8,272.2 281.2,268.8 								"/>
								<polygon class="st7" points="497.6,215.2 482.8,219.1 466.5,223.5 465.4,219.4 481.7,215 496.5,211.1 								"/>
							</g>
							<g>
								<polygon class="st7" points="286.6,284.6 274.6,289.6 256.9,297 255.3,293 273,285.7 285,280.7 								"/>
								<polygon class="st7" points="478.3,205.1 462.8,211.6 461.2,207.7 476.6,201.2 								"/>
							</g>
							<g>
								<polygon class="st7" points="292.4,295.7 281,302.3 264.5,311.8 262.4,308.1 278.9,298.6 290.3,292 								"/>
								<polygon class="st7" points="472,191.9 457.5,200.3 455.4,196.6 469.8,188.3 								"/>
							</g>
							<g>
								<polygon class="st7" points="299.5,305.9 289,314 274,325.5 271.4,322.2 286.5,310.6 297,302.6 								"/>
								<polygon class="st7" points="476.3,170.1 463.9,179.6 450.8,189.7 448.2,186.4 461.3,176.3 473.7,166.8 								"/>
							</g>
							<g>
								<polygon class="st7" points="308,315.1 298.5,324.6 285.2,337.9 282.2,334.9 295.5,321.6 305,312.1 								"/>
								<polygon class="st7" points="465.5,157.4 454.4,168.6 442.8,180.2 439.8,177.2 462.5,154.4 								"/>
							</g>
							<g>
								<path class="st7" d="M453.2,146.2l-9.7,12.7c-1.1-0.9-2.2-1.7-3.4-2.5l9.8-12.7L453.2,146.2z"/>
							</g>
							<g>
								<polygon class="st7" points="431.4,150.7 439.5,136.7 435.8,134.5 427.7,148.6 								"/>
							</g>
							<g>
								<polygon class="st7" points="330.1,346.5 323.1,363.3 327,364.9 334,348.1 								"/>
							</g>
							<g>
								<path class="st7" d="M347.5,352.7l-4.6,17.3l-4.1-1.1l4.6-17.3C344.8,352,346.2,352.4,347.5,352.7z"/>
							</g>
							<g>
								<polygon class="st7" points="357.4,354.9 355.1,372.4 359.3,373 361.6,355.5 								"/>
							</g>
							<path class="st7" d="M282.3,272.9l-12.5,3.4c-0.4-1.4-0.7-2.7-1.1-4.1l12.5-3.4L282.3,272.9z"/>
							<path class="st7" d="M286.6,284.6l-12,5c-0.6-1.3-1.1-2.6-1.6-3.9l12-5L286.6,284.6z"/>
							<path class="st7" d="M285,211.6l-12.1-5c0.5-1.3,1-2.6,1.6-3.9l12.1,5L285,211.6z"/>
							<path class="st7" d="M292.4,295.7l-11.4,6.6c-0.7-1.2-1.4-2.4-2.1-3.7l11.3-6.5L292.4,295.7z"/>
							<path class="st7" d="M290.3,200.3l-11.4-6.6c0.7-1.2,1.4-2.5,2.1-3.7l11.4,6.6L290.3,200.3z"/>
							<path class="st7" d="M299.5,305.9L289,314c-0.9-1.1-1.7-2.2-2.5-3.4l10.5-8L299.5,305.9z"/>
							<path class="st7" d="M308,315.1l-9.5,9.5c-1-1-2-2-3-3l9.4-9.5L308,315.1z"/>
							<path class="st7" d="M321,150.3c-1.2,0.7-2.4,1.4-3.6,2.2L321,150.3z"/>
							<path class="st7" d="M334,348.1c-1.3-0.5-2.6-1.1-3.9-1.7L334,348.1z"/>
							<path class="st7" d="M361.6,355.5c-1.4-0.2-2.8-0.4-4.2-0.6L361.6,355.5z"/>
							<path class="st7" d="M400.6,337.8l4,14.8c-1.4,0.4-2.7,0.7-4.1,1l-3.9-14.8L400.6,337.8z"/>
							<path class="st7" d="M412.3,333.5l6,14.4c-1.3,0.5-2.6,1.1-3.9,1.6l-5.9-14.4L412.3,333.5z"/>
							<path class="st7" d="M423.4,327.7l7.9,13.7c-1.2,0.7-2.5,1.4-3.7,2.1l-7.9-13.7L423.4,327.7z"/>
							<path class="st7" d="M431.4,150.7c-1.2-0.7-2.5-1.4-3.7-2.1L431.4,150.7z"/>
							<path class="st7" d="M442.8,312.1l11.5,11.5c-1,1-2,2-3,3l-11.4-11.5L442.8,312.1z"/>
							<path class="st7" d="M439.8,177.2l11.5-11.6c1,1,2,2,3,3l-11.6,11.6L439.8,177.2z"/>
							<path class="st7" d="M463.8,312.6c-0.8,1.1-1.7,2.2-2.6,3.3l-13-10l2.6-3.4L463.8,312.6z"/>
							<path class="st7" d="M448.2,186.4l13.1-10.1c0.9,1.1,1.8,2.2,2.6,3.3l-13.1,10.1L448.2,186.4z"/>
							<path class="st7" d="M457.5,292l14.4,8.3c-0.7,1.2-1.4,2.4-2.2,3.6l-14.3-8.3L457.5,292z"/>
							<path class="st7" d="M455.4,196.6l14.4-8.3c0.7,1.2,1.5,2.4,2.2,3.6l-14.5,8.3L455.4,196.6z"/>
							<path class="st7" d="M478.2,287.1c-0.5,1.3-1.1,2.6-1.7,3.9l-15.4-6.4l1.6-3.9L478.2,287.1z"/>
							<path class="st7" d="M461.2,207.7l15.5-6.4c0.6,1.3,1.1,2.6,1.6,3.9l-15.5,6.4L461.2,207.7z"/>
							<path class="st7" d="M466.5,268.8l16.2,4.4c-0.3,1.4-0.7,2.7-1.1,4.1l-16.2-4.4L466.5,268.8z"/>
							<path class="st7" d="M465.4,219.4l16.3-4.4c0.4,1.4,0.8,2.7,1.1,4.1l-16.3,4.4L465.4,219.4z"/>
							<path class="st7" d="M468.1,231.6l16.7-2.2c0.2,1.4,0.4,2.8,0.6,4.2l-16.7,2.2L468.1,231.6z"/>
							<path class="st7" d="M486.1,244c0,0.7,0,1.3,0,2s0,1.5,0,2.2h-16.9V244"/>
							<path class="st7" d="M278.5,248.3H271c0-0.8,0-1.6,0-2.4c0-0.6,0-1.2,0-1.8h7.5V248.3z"/>
							<path class="st7" d="M279.6,260.7l-7.5,1c-0.2-1.4-0.4-2.8-0.5-4.2l7.5-1L279.6,260.7z"/>
							<path class="st7" d="M272.1,230.6l7.6,1l-0.6,4.2l-7.5-1C271.7,233.4,271.9,232,272.1,230.6z"/>
							<path class="st7" d="M282.3,219.4l-1.1,4.1l-7.5-2c0.3-1.4,0.7-2.7,1.1-4.1L282.3,219.4z"/>
							<path class="st7" d="M485,233.6l-16.3,2.1l-0.6-4.2l16.3-2.1C484.7,230.8,484.8,232.2,485,233.6z"/>
						</g>
						<g class="st13">
							<g>
								<rect x="373.8" y="127.5" class="st7" width="1.7" height="29.1"/>
							</g>
							<g>
								
									<rect x="367" y="127.7" transform="matrix(0.9979 -6.542760e-02 6.542760e-02 0.9979 -8.5194 24.3731)" class="st7" width="1.7" height="29.1"/>
								
									<rect x="380.6" y="335.2" transform="matrix(0.9979 -6.542669e-02 6.542669e-02 0.9979 -22.0667 25.7074)" class="st7" width="1.7" height="29.1"/>
							</g>
							<g>
								
									<rect x="360.3" y="128.4" transform="matrix(0.9914 -0.1307 0.1307 0.9914 -15.5844 48.428)" class="st7" width="1.7" height="29.1"/>
								
									<rect x="387.4" y="334.5" transform="matrix(0.9914 -0.1307 0.1307 0.9914 -42.2887 53.7384)" class="st7" width="1.7" height="29.1"/>
							</g>
							<g>
								
									<rect x="353.5" y="129.5" transform="matrix(0.9807 -0.1953 0.1953 0.9807 -21.3111 71.9773)" class="st7" width="1.7" height="29.1"/>
								
									<rect x="394.1" y="333.4" transform="matrix(0.9807 -0.1953 0.1953 0.9807 -60.3484 83.8325)" class="st7" width="1.7" height="29.1"/>
							</g>
							<g>
								
									<rect x="346.9" y="131.1" transform="matrix(0.9659 -0.2591 0.2591 0.9659 -25.8652 95.0773)" class="st7" width="1.7" height="29.1"/>
							</g>
							<g>
								<path class="st7" d="M269.6,217c-0.2,0.6-0.3,1.1-0.4,1.7l-9.1-2.4l0.4-1.7L269.6,217z"/>
							</g>
							<g>
								<path class="st7" d="M268,223.9c-0.1,0.6-0.2,1.1-0.3,1.7l-9.2-1.8l0.3-1.7L268,223.9z"/>
							</g>
							<g>
								<path class="st7" d="M266.8,230.9c-0.1,0.6-0.2,1.1-0.2,1.7l-9.4-1.2l0.2-1.7L266.8,230.9z"/>
							</g>
							<g>
								<path class="st7" d="M266,238c0,0.6-0.1,1.1-0.1,1.7l-9.4-0.6l0.1-1.7L266,238z"/>
							</g>
							<g>
								<path class="st7" d="M265.7,246.1c0,0.3,0,0.6,0,0.8h-9.5v-1.7h9.5C265.7,245.5,265.7,245.8,265.7,246.1z"/>
							</g>
							<g>
								<path class="st7" d="M266,254l-9.4,0.6l-0.1-1.7l9.4-0.6C265.9,252.9,266,253.5,266,254z"/>
							</g>
							<g>
								<path class="st7" d="M266.8,261.1l-9.4,1.2l-0.2-1.7l9.4-1.2C266.6,260,266.7,260.6,266.8,261.1z"/>
							</g>
							<g>
								<path class="st7" d="M268,268.2l-9.2,1.8l-0.3-1.7l9.2-1.8C267.7,267.1,267.8,267.6,268,268.2z"/>
							</g>
							<g>
								<path class="st7" d="M269.6,275.1l-9.1,2.4l-0.4-1.7l9.1-2.4C269.3,274,269.5,274.6,269.6,275.1z"/>
							</g>
							<g>
								<path class="st7" d="M271.7,281.9l-8.9,3l-0.6-1.6l8.9-3C271.3,280.9,271.5,281.4,271.7,281.9z"/>
							</g>
							<g>
								
									<rect x="291.7" y="323.4" transform="matrix(0.6597 -0.7515 0.7515 0.6597 -139.4965 340.4656)" class="st7" width="29.1" height="1.7"/>
							</g>
							<g>
								
									<rect x="296.9" y="327.7" transform="matrix(0.6092 -0.793 0.793 0.6092 -138.8459 375.3739)" class="st7" width="29.1" height="1.7"/>
							</g>
							<g>
								
									<rect x="302.4" y="331.6" transform="matrix(0.556 -0.8312 0.8312 0.556 -135.617 411.1146)" class="st7" width="29.1" height="1.7"/>
							</g>
							<g>
								
									<rect x="308.2" y="335.2" transform="matrix(0.5004 -0.8658 0.8658 0.5004 -129.7186 447.337)" class="st7" width="29.1" height="1.7"/>
							</g>
							<g>
								
									<rect x="406" y="152" transform="matrix(0.4427 -0.8967 0.8967 0.4427 97.3198 462.3383)" class="st7" width="29.1" height="1.7"/>
							</g>
							<g>
								
									<rect x="399.9" y="149.2" transform="matrix(0.3831 -0.9237 0.9237 0.3831 117.0419 475.3996)" class="st7" width="29.1" height="1.7"/>
							</g>
							<g>
								
									<rect x="393.5" y="146.8" transform="matrix(0.3218 -0.9468 0.9468 0.3218 136.9146 486.4657)" class="st7" width="29.1" height="1.7"/>
							</g>
							<g>
								
									<rect x="387" y="144.8" transform="matrix(0.2591 -0.9659 0.9659 0.2591 156.8415 495.6946)" class="st7" width="29.1" height="1.7"/>
							</g>
							<g>
								
									<rect x="380.4" y="143.3" transform="matrix(0.1954 -0.9807 0.9807 0.1954 176.396 503.2542)" class="st7" width="29.1" height="1.7"/>
							</g>
							<g>
								
									<rect x="373.6" y="142.2" transform="matrix(0.1307 -0.9914 0.9914 0.1307 195.6699 509.1901)" class="st7" width="29.1" height="1.7"/>
							</g>
							<g>
								
									<rect x="366.9" y="141.5" transform="matrix(6.548415e-02 -0.9979 0.9979 6.548415e-02 214.3859 513.6855)" class="st7" width="29.1" height="1.7"/>
							</g>
						</g>
						<path class="st2" d="M510.9,328.1c-0.8,0-1.7-0.2-2.5-0.7c-2.4-1.4-3.2-4.4-1.9-6.8c11.4-20.1,18-41.9,19.4-65.1
							c0.2-2.8,2.5-4.9,5.3-4.7s4.8,2.5,4.7,5.3c-1.5,24.6-8.5,48-20.7,69.4C514.4,327.2,512.7,328.1,510.9,328.1z"/>
						<path class="st14" d="M274.3,310.6c-1.7,0-3.4-0.9-4.3-2.5c-8.5-14.4-13.8-30.1-15.9-46.7c-0.3-2.7,1.6-5.2,4.3-5.6
							c2.7-0.3,5.2,1.6,5.6,4.3c1.9,15.2,6.8,29.7,14.6,42.9c1.4,2.4,0.6,5.4-1.8,6.8C276.1,310.4,275.2,310.6,274.3,310.6z"/>
						<path class="st7" d="M274.3,121.8c-24.3,19.9-42.1,46.3-51.5,76.1c-0.8,2.6,0.6,5.4,3.3,6.3c0.5,0.2,1,0.2,1.5,0.2
							c2.1,0,4.1-1.4,4.8-3.5c8.8-28,25.5-52.7,48.3-71.4c2.1-1.7,2.4-4.9,0.7-7C279.6,120.3,276.5,120,274.3,121.8z"/>
						<path class="st2" d="M481,122.8c0.9,0.8,2.1,1.2,3.2,1.2c1.4,0,2.8-0.6,3.8-1.8c1.8-2.1,1.5-5.3-0.6-7
							C456.4,88.6,416.8,74,375.9,74c-27.4,0-53.6,6.3-77.8,18.6c-2.5,1.3-3.4,4.3-2.2,6.7c1.3,2.5,4.3,3.4,6.7,2.2
							C325.4,89.9,350.1,84,375.9,84C414.4,84,451.7,97.8,481,122.8z"/>
						<path class="st14" d="M479.4,302.4c-2.4-1.4-5.4-0.7-6.9,1.7c-9.8,16.4-23.8,30.1-40.3,39.7c-17,9.9-36.5,15.1-56.3,15.1
							c-2.8,0-5,2.2-5,5s2.2,5,5,5c21.6,0,42.8-5.7,61.3-16.4c18-10.4,33.2-25.4,43.9-43.2C482.5,306.9,481.8,303.8,479.4,302.4z"/>
						<path class="st14" d="M494.5,214.4c-5.7-21.5-17.3-41.1-33.4-56.7c-23-22.2-53.2-34.4-85.2-34.4c-2.8,0-5,2.2-5,5
							c0,2.8,2.2,5,5,5c29.4,0,57.2,11.2,78.3,31.6c14.8,14.3,25.4,32.3,30.7,52.1c0.6,2.2,2.6,3.7,4.8,3.7c0.4,0,0.9-0.1,1.3-0.2
							C493.6,219.8,495.2,217,494.5,214.4z"/>
						<path class="st7" d="M444.5,392.9c-21.5,10.1-44.6,15.2-68.6,15.2c-20,0-39.5-3.6-57.9-10.7c-2.6-1-5.5,0.3-6.5,2.9
							s0.3,5.5,2.9,6.5c19.6,7.5,40.3,11.3,61.5,11.3c25.4,0,49.9-5.4,72.8-16.2c2.5-1.2,3.6-4.1,2.4-6.6
							C449.9,392.8,447,391.8,444.5,392.9z"/>
						<g class="st15">
							<g>
								<rect x="373" y="111" class="st7" width="3.4" height="3.3"/>
							</g>
							<g>
								
									<rect x="368.5" y="111.1" transform="matrix(0.9995 -3.275590e-02 3.275590e-02 0.9995 -3.4947 12.1872)" class="st7" width="3.4" height="3.3"/>
							</g>
							<g>
								
									<rect x="364.1" y="111.3" transform="matrix(0.9979 -6.548121e-02 6.548121e-02 0.9979 -6.6113 24.1965)" class="st7" width="3.4" height="3.3"/>
							</g>
							<g>
								
									<rect x="359.7" y="111.7" transform="matrix(0.9952 -9.811670e-02 9.811670e-02 0.9952 -9.3778 36.0075)" class="st7" width="3.4" height="3.3"/>
							</g>
							<g>
								
									<rect x="355.3" y="112.2" transform="matrix(0.9914 -0.1307 0.1307 0.9914 -11.8159 47.6371)" class="st7" width="3.4" height="3.3"/>
							</g>
							<g>
								
									<rect x="350.9" y="112.8" transform="matrix(0.9866 -0.1631 0.1631 0.9866 -13.9435 59.0411)" class="st7" width="3.4" height="3.3"/>
							</g>
							<g>
								
									<rect x="346.6" y="113.6" transform="matrix(0.9807 -0.1953 0.1953 0.9807 -15.7997 70.2412)" class="st7" width="3.4" height="3.3"/>
							</g>
							<g>
								
									<rect x="297.8" y="133.8" transform="matrix(0.8312 -0.556 0.556 0.8312 -24.741 189.3591)" class="st7" width="3.4" height="3.3"/>
							</g>
							<g>
								
									<rect x="294.1" y="136.4" transform="matrix(0.8126 -0.5829 0.5829 0.8126 -25.0158 198.3038)" class="st7" width="3.4" height="3.3"/>
							</g>
							<g>
								<polygon class="st7" points="292.6,138.3 289.9,140.4 291.9,143 294.6,141 								"/>
							</g>
							<g>
								<polygon class="st7" points="289,141.1 286.4,143.2 288.5,145.8 291.1,143.7 								"/>
							</g>
							<g>
								<polygon class="st7" points="285.6,143.9 283,146.2 285.2,148.7 287.7,146.4 								"/>
							</g>
							<g>
								<polygon class="st7" points="282.2,146.9 279.7,149.2 282,151.6 284.5,149.3 								"/>
							</g>
							<g>
								<polygon class="st7" points="278.9,150 276.6,152.4 278.9,154.7 281.3,152.4 								"/>
							</g>
							<g>
								<polygon class="st7" points="275.8,153.2 273.5,155.6 275.9,157.9 278.2,155.5 								"/>
							</g>
							<g>
								<polygon class="st7" points="272.7,156.5 270.5,159 273,161.2 275.2,158.7 								"/>
								<polygon class="st7" points="476.3,335.2 474.1,337.7 476.6,339.9 478.8,337.4 								"/>
							</g>
							<g>
								<polygon class="st7" points="269.8,159.9 267.6,162.5 270.2,164.6 272.3,162 								"/>
								<polygon class="st7" points="479.1,331.8 477,334.4 479.5,336.6 481.7,334 								"/>
							</g>
							<g>
								
									<rect x="265.6" y="164" transform="matrix(0.6084 -0.7937 0.7937 0.6084 -26.7784 276.9753)" class="st7" width="3.4" height="3.3"/>
								<polygon class="st7" points="481.8,328.4 479.7,331 482.4,333.1 484.4,330.4 								"/>
							</g>
							<g>
								
									<rect x="262.9" y="167.6" transform="matrix(0.5821 -0.8131 0.8131 0.5821 -27.0672 285.8874)" class="st7" width="3.4" height="3.3"/>
								<polygon class="st7" points="484.3,324.8 482.4,327.6 485.1,329.5 487,326.8 								"/>
							</g>
							<g>
								
									<rect x="260.3" y="171.2" transform="matrix(0.5551 -0.8318 0.8318 0.5551 -27.1844 294.8654)" class="st7" width="3.4" height="3.3"/>
								
									<rect x="485.6" y="321.8" transform="matrix(0.5551 -0.8318 0.8318 0.5551 -52.2407 549.2341)" class="st7" width="3.4" height="3.3"/>
							</g>
							<g>
								
									<rect x="258" y="175" transform="matrix(0.5277 -0.8495 0.8495 0.5277 -27.3576 304.0491)" class="st7" width="3.4" height="3.3"/>
								
									<rect x="488" y="318.1" transform="matrix(0.5277 -0.8495 0.8495 0.5277 -40.2886 566.9633)" class="st7" width="3.4" height="3.3"/>
							</g>
							<g>
								
									<rect x="255.7" y="178.8" transform="matrix(0.4996 -0.8663 0.8663 0.4996 -27.4948 313.2993)" class="st7" width="3.4" height="3.3"/>
							</g>
							<g>
								
									<rect x="253.6" y="182.7" transform="matrix(0.471 -0.8821 0.8821 0.471 -27.5267 322.7025)" class="st7" width="3.4" height="3.3"/>
							</g>
							<g>
								
									<rect x="251.5" y="186.6" transform="matrix(0.4419 -0.8971 0.8971 0.4419 -27.57 332.2259)" class="st7" width="3.4" height="3.3"/>
							</g>
							<g>
								
									<rect x="249.6" y="190.6" transform="matrix(0.4123 -0.911 0.911 0.4123 -27.4037 341.9252)" class="st7" width="3.4" height="3.3"/>
							</g>
							<g>
								
									<rect x="247.9" y="194.7" transform="matrix(0.3823 -0.924 0.924 0.3823 -27.2452 351.8898)" class="st7" width="3.4" height="3.3"/>
							</g>
							<g>
								
									<rect x="238.2" y="233.3" transform="matrix(9.789663e-02 -0.9952 0.9952 9.789663e-02 -17.3615 450.7307)" class="st7" width="3.4" height="3.3"/>
							</g>
							<g>
								
									<rect x="237.9" y="237.6" transform="matrix(6.531934e-02 -0.9979 0.9979 6.531934e-02 -14.8573 462.72)" class="st7" width="3.4" height="3.3"/>
							</g>
							<g>
								
									<rect x="237.6" y="242.1" transform="matrix(3.268931e-02 -0.9995 0.9995 3.268931e-02 -12.0731 474.9307)" class="st7" width="3.4" height="3.3"/>
							</g>
							<g>
								<rect x="237.6" y="246.5" class="st7" width="3.3" height="3.4"/>
							</g>
							<g>
								
									<rect x="237.7" y="250.9" transform="matrix(0.9995 -3.269029e-02 3.269029e-02 0.9995 -8.1288 7.9594)" class="st7" width="3.3" height="3.4"/>
								
									<rect x="508.3" y="242" transform="matrix(0.9995 -3.269029e-02 3.269029e-02 0.9995 -7.6953 16.8011)" class="st7" width="3.3" height="3.4"/>
							</g>
							<g>
								
									<rect x="237.9" y="255.3" transform="matrix(0.9979 -6.531934e-02 6.531934e-02 0.9979 -16.277 16.1952)" class="st7" width="3.3" height="3.4"/>
								
									<rect x="508.1" y="237.6" transform="matrix(0.9979 -6.531934e-02 6.531934e-02 0.9979 -14.5415 33.8092)" class="st7" width="3.3" height="3.4"/>
							</g>
							<g>
								
									<rect x="238.2" y="259.8" transform="matrix(0.9952 -9.789663e-02 9.789663e-02 0.9952 -24.4493 24.739)" class="st7" width="3.3" height="3.4"/>
								
									<rect x="507.8" y="233.2" transform="matrix(0.9952 -9.792577e-02 9.792577e-02 0.9952 -20.5562 51.0153)" class="st7" width="3.3" height="3.4"/>
							</g>
							<g>
								
									<rect x="238.7" y="264.2" transform="matrix(0.9915 -0.1304 0.1304 0.9915 -32.6219 33.6145)" class="st7" width="3.3" height="3.4"/>
								
									<rect x="507.3" y="228.8" transform="matrix(0.9915 -0.1304 0.1304 0.9915 -25.709 68.3292)" class="st7" width="3.3" height="3.4"/>
							</g>
							<g>
								
									<rect x="239.4" y="268.6" transform="matrix(0.9867 -0.1627 0.1627 0.9867 -40.7598 42.8174)" class="st7" width="3.3" height="3.4"/>
								
									<rect x="506.6" y="224.4" transform="matrix(0.9867 -0.1627 0.1627 0.9867 -30.0074 85.7055)" class="st7" width="3.3" height="3.4"/>
							</g>
							<g>
								
									<rect x="240.2" y="272.9" transform="matrix(0.9808 -0.1949 0.1949 0.9808 -48.8867 52.4028)" class="st7" width="3.3" height="3.4"/>
								
									<rect x="505.8" y="220" transform="matrix(0.9808 -0.1949 0.1949 0.9808 -33.4853 103.1483)" class="st7" width="3.3" height="3.4"/>
							</g>
							<g>
								
									<rect x="241.1" y="277.3" transform="matrix(0.9739 -0.2268 0.2268 0.9739 -56.9562 62.3311)" class="st7" width="3.3" height="3.4"/>
								
									<rect x="504.9" y="215.7" transform="matrix(0.9739 -0.2269 0.2269 0.9739 -36.1283 120.6005)" class="st7" width="3.3" height="3.4"/>
							</g>
							<g>
								
									<rect x="242.2" y="281.6" transform="matrix(0.966 -0.2585 0.2585 0.966 -64.9439 72.6632)" class="st7" width="3.3" height="3.4"/>
								
									<rect x="503.8" y="211.4" transform="matrix(0.966 -0.2585 0.2585 0.966 -37.8994 137.9071)" class="st7" width="3.3" height="3.4"/>
							</g>
							<g>
								
									<rect x="243.4" y="285.9" transform="matrix(0.957 -0.29 0.29 0.957 -72.8612 83.4313)" class="st7" width="3.3" height="3.4"/>
								
									<rect x="502.5" y="207.2" transform="matrix(0.957 -0.29 0.29 0.957 -38.9147 155.1968)" class="st7" width="3.3" height="3.4"/>
							</g>
							<g>
								
									<rect x="244.7" y="290.1" transform="matrix(0.947 -0.3211 0.3211 0.947 -80.6377 94.5734)" class="st7" width="3.3" height="3.4"/>
								
									<rect x="501.2" y="202.9" transform="matrix(0.947 -0.3211 0.3211 0.947 -39.0779 172.3149)" class="st7" width="3.3" height="3.4"/>
							</g>
							<g>
								
									<rect x="246.3" y="294.2" transform="matrix(0.936 -0.3519 0.3519 0.936 -88.2784 106.1723)" class="st7" width="3.3" height="3.4"/>
								
									<rect x="499.7" y="198.8" transform="matrix(0.936 -0.3519 0.3519 0.936 -38.4766 189.2512)" class="st7" width="3.3" height="3.4"/>
							</g>
							<g>
								
									<rect x="247.9" y="298.4" transform="matrix(0.924 -0.3823 0.3823 0.924 -95.767 118.19)" class="st7" width="3.3" height="3.4"/>
								
									<rect x="498.1" y="194.6" transform="matrix(0.924 -0.3823 0.3823 0.924 -37.085 205.974)" class="st7" width="3.3" height="3.4"/>
							</g>
							<g>
								
									<rect x="249.7" y="302.4" transform="matrix(0.911 -0.4123 0.4123 0.911 -103.0332 130.6716)" class="st7" width="3.3" height="3.4"/>
								
									<rect x="496.3" y="190.6" transform="matrix(0.911 -0.4123 0.4123 0.911 -34.9855 222.4211)" class="st7" width="3.3" height="3.4"/>
							</g>
							<g>
								
									<rect x="251.6" y="306.5" transform="matrix(0.8971 -0.4419 0.4419 0.8971 -110.1143 143.6249)" class="st7" width="3.3" height="3.4"/>
								
									<rect x="494.4" y="186.5" transform="matrix(0.8971 -0.4419 0.4419 0.8971 -32.118 238.5881)" class="st7" width="3.3" height="3.4"/>
							</g>
							<g>
								
									<rect x="253.5" y="310.4" transform="matrix(0.8821 -0.471 0.471 0.8821 -116.9238 156.9753)" class="st7" width="3.3" height="3.4"/>
								
									<rect x="492.4" y="182.6" transform="matrix(0.8821 -0.471 0.471 0.8821 -28.5627 254.4356)" class="st7" width="3.3" height="3.4"/>
							</g>
							<g>
								
									<rect x="490.3" y="178.7" transform="matrix(0.8663 -0.4996 0.4996 0.8663 -24.3514 269.8815)" class="st7" width="3.3" height="3.4"/>
							</g>
							<g>
								
									<rect x="313.1" y="368.1" transform="matrix(0.4427 -0.8967 0.8967 0.4427 -156.1646 488.2955)" class="st7" width="3.3" height="3.4"/>
							</g>
							<g>
								
									<rect x="317.1" y="370" transform="matrix(0.4131 -0.9107 0.9107 0.4131 -151.3996 508.4295)" class="st7" width="3.3" height="3.4"/>
							</g>
							<g>
								
									<rect x="321.1" y="371.7" transform="matrix(0.383 -0.9237 0.9237 0.383 -145.7964 528.5749)" class="st7" width="3.3" height="3.4"/>
							</g>
							<g>
								
									<rect x="325.3" y="373.4" transform="matrix(0.3526 -0.9358 0.9358 0.3526 -139.3087 548.7516)" class="st7" width="3.3" height="3.4"/>
							</g>
							<g>
								
									<rect x="329.4" y="374.8" transform="matrix(0.3218 -0.9468 0.9468 0.3218 -131.9651 568.8593)" class="st7" width="3.3" height="3.4"/>
							</g>
							<g>
								
									<rect x="333.7" y="376.2" transform="matrix(0.2906 -0.9568 0.9568 0.2906 -123.6911 588.9396)" class="st7" width="3.3" height="3.4"/>
							</g>
							<g>
								
									<rect x="390.6" y="112.1" transform="matrix(0.1307 -0.9914 0.9914 0.1307 228.2038 487.824)" class="st7" width="3.3" height="3.4"/>
							</g>
							<g>
								
									<rect x="386.3" y="111.6" transform="matrix(9.811670e-02 -0.9952 0.9952 9.811670e-02 237.149 488.2508)" class="st7" width="3.3" height="3.4"/>
							</g>
							<g>
								
									<rect x="381.9" y="111.3" transform="matrix(6.544977e-02 -0.9979 0.9979 6.544977e-02 245.6956 488.2513)" class="st7" width="3.3" height="3.4"/>
							</g>
							<g>
								
									<rect x="377.4" y="111" transform="matrix(3.275590e-02 -0.9995 0.9995 3.275590e-02 253.9872 487.8887)" class="st7" width="3.3" height="3.4"/>
							</g>
						</g>
						<g>
							<g>
								<path class="st7" d="M323.8,142.6L323.8,142.6c-1.5,0.8-3.3,0.1-4.1-1.4l-2.7-5.5c-0.8-1.5-0.1-3.3,1.3-4.1l0,0
									c1.5-0.8,3.3-0.1,4.1,1.4l2.7,5.5C325.9,140,325.3,141.9,323.8,142.6z"/>
							</g>
							<g>
								<path class="st7" d="M310.8,150.3L310.8,150.3c-1.4,0.9-3.3,0.6-4.2-0.8l-3.4-5c-0.9-1.4-0.6-3.3,0.8-4.2l0,0
									c1.4-0.9,3.3-0.6,4.2,0.8l3.4,5C312.5,147.5,312.2,149.4,310.8,150.3z"/>
							</g>
							<g>
								<path class="st7" d="M298.9,159.6L298.9,159.6c-1.3,1.1-3.2,1-4.3-0.2l-4.1-4.6c-1.1-1.3-1-3.2,0.2-4.3l0,0
									c1.3-1.1,3.2-1,4.3,0.2l4.1,4.6C300.2,156.6,300.1,158.5,298.9,159.6z"/>
							</g>
							<g>
								<path class="st7" d="M288.3,170.4L288.3,170.4c-1.1,1.3-3,1.4-4.3,0.3l-4.6-4c-1.3-1.1-1.4-3-0.3-4.3l0,0
									c1.1-1.3,3-1.4,4.3-0.3l4.6,4C289.2,167.2,289.4,169.2,288.3,170.4z"/>
							</g>
							<path class="st7" d="M491,301.7L491,301.7c-0.7,1.5-2.6,2.2-4.1,1.4l-5.5-2.7c-1.5-0.7-2.1-2.6-1.4-4.1l0,0
								c0.7-1.5,2.6-2.2,4.1-1.4l5.5,2.7C491.1,298.3,491.8,300.2,491,301.7z"/>
							<g>
								<path class="st7" d="M497.3,286.2L497.3,286.2c-0.5,1.6-2.3,2.5-3.9,1.9l-5.8-1.9c-1.6-0.5-2.5-2.3-1.9-3.8l0,0
									c0.5-1.6,2.3-2.5,3.9-1.9l5.8,1.9C497,282.8,497.8,284.6,497.3,286.2z"/>
							</g>
							<g>
								<path class="st7" d="M501.5,269.9L501.5,269.9c-0.3,1.7-1.9,2.7-3.6,2.4l-6-1.1c-1.6-0.3-2.7-1.9-2.4-3.6l0,0
									c0.3-1.6,1.9-2.7,3.6-2.4l6,1.1C500.7,266.7,501.8,268.3,501.5,269.9z"/>
							</g>
							<g>
								<path class="st7" d="M503.5,253.3L503.5,253.3c-0.1,1.7-1.5,3-3.2,2.9l-6.1-0.3c-1.7-0.1-3-1.5-2.9-3.2l0,0
									c0.1-1.7,1.5-3,3.2-2.9l6.1,0.3C502.3,250.2,503.6,251.7,503.5,253.3z"/>
							</g>
							<g>
								<path class="st7" d="M312.4,342.9L312.4,342.9c1.4,0.9,1.8,2.8,0.9,4.2l-3.3,5.1c-0.9,1.4-2.8,1.8-4.2,0.9l0,0
									c-1.4-0.9-1.8-2.8-0.9-4.2l3.3-5.1C309.1,342.4,311,342,312.4,342.9z"/>
							</g>
							<g>
								<path class="st7" d="M325.6,350.3L325.6,350.3c1.5,0.7,2.1,2.6,1.4,4.1l-2.7,5.5c-0.7,1.5-2.6,2.2-4.1,1.4l0,0
									c-1.5-0.7-2.1-2.6-1.4-4.1l2.7-5.5C322.3,350.3,324.1,349.6,325.6,350.3z"/>
							</g>
						</g>
						<circle class="st7" cx="376.8" cy="90.1" r="3.6"/>
						<circle class="st7" cx="391.5" cy="90.9" r="3.6"/>
						<circle class="st7" cx="404.8" cy="92.9" r="3.6"/>
						<circle class="st7" cx="418" cy="95.8" r="3.6"/>
						<circle class="st7" cx="430.8" cy="99.8" r="3.6"/>
						<g class="st16">
							<path class="st7" d="M375.7,128c-64,0-115.9,51.9-115.9,116s51.9,116,115.9,116s115.9-51.9,115.9-116S439.7,128,375.7,128z
								 M375.7,350.8C316.8,350.8,269,303,269,244s47.8-106.8,106.7-106.8S482.4,185,482.4,244C482.4,303,434.7,350.8,375.7,350.8z"
								/>
							<path class="st7" d="M344.8,165.1l-3.3-7.7C307,171,282.7,204.7,282.7,244c0,12.7,2.6,24.9,7.2,35.9l7.7-3.2
								c-4.2-10.1-6.5-21.1-6.5-32.7C291.1,208.1,313.3,177.5,344.8,165.1z"/>
							<path class="st7" d="M375.7,174.1c-38.6,0-69.8,31.3-69.8,69.9s31.3,69.9,69.8,69.9s69.8-31.3,69.8-69.9
								C445.6,205.4,414.3,174.1,375.7,174.1z M375.7,306.7c-34.6,0-62.6-28.1-62.6-62.7s28-62.7,62.6-62.7s62.6,28.1,62.6,62.7
								C438.4,278.6,410.3,306.7,375.7,306.7z M375.7,277.3c-18.4,0-33.2-14.9-33.2-33.3s14.9-33.3,33.2-33.3
								c18.4,0,33.2,14.9,33.2,33.3S394.1,277.3,375.7,277.3z"/>
							<g>
								<rect x="374.1" y="144" class="st7" width="3.4" height="22"/>
								<rect x="374.1" y="322" class="st7" width="3.4" height="22"/>
							</g>
							<g>
								
									<rect x="362.5" y="144.8" transform="matrix(0.9914 -0.1307 0.1307 0.9914 -17.237 48.9376)" class="st7" width="3.4" height="22"/>
								
									<rect x="385.7" y="321.2" transform="matrix(0.9914 -0.1307 0.1307 0.9914 -40.092 53.4836)" class="st7" width="3.4" height="22"/>
							</g>
							<g>
								
									<rect x="351.1" y="147.1" transform="matrix(0.9659 -0.2591 0.2591 0.9659 -28.9115 96.8108)" class="st7" width="3.4" height="22"/>
								
									<rect x="397.1" y="319" transform="matrix(0.9659 -0.2591 0.2591 0.9659 -71.8777 114.6006)" class="st7" width="3.4" height="22"/>
							</g>
							<g>
								<polygon class="st7" points="407.1,315.4 404,316.7 412.4,337 415.5,335.7 								"/>
							</g>
							<g>
								<polygon class="st7" points="416.2,310.7 413.2,312.4 424.2,331.4 427.1,329.7 								"/>
							</g>
							<g>
								<polygon class="st7" points="424.5,304.9 421.8,306.9 435.2,324.3 437.9,322.3 								"/>
							</g>
							<g>
								<polygon class="st7" points="432,298 429.6,300.4 445.2,315.9 447.5,313.5 								"/>
							</g>
							<g>
								<polygon class="st7" points="438.6,290.2 436.5,292.8 453.9,306.2 456,303.5 								"/>
							</g>
							<g>
								<polygon class="st7" points="444.1,281.6 442.4,284.5 461.4,295.5 463.1,292.5 								"/>
							</g>
							<g>
								<polygon class="st7" points="448.4,272.3 447.1,275.4 467.4,283.8 468.6,280.7 								"/>
							</g>
							<g>
								
									<rect x="459.9" y="256.1" transform="matrix(0.2586 -0.966 0.966 0.2586 84.2806 643.9213)" class="st7" width="3.4" height="21.9"/>
							</g>
							<g>
								
									<rect x="462.2" y="244.6" transform="matrix(0.1304 -0.9915 0.9915 0.1304 150.0139 682.1996)" class="st7" width="3.4" height="21.9"/>
							</g>
							<g>
								<rect x="453.7" y="242.3" class="st7" width="21.9" height="3.4"/>
							</g>
							<g>
								
									<rect x="452.9" y="230.7" transform="matrix(0.9915 -0.1304 0.1304 0.9915 -26.338 62.4641)" class="st7" width="21.9" height="3.4"/>
							</g>
							<g>
								
									<rect x="450.6" y="219.3" transform="matrix(0.966 -0.2586 0.2586 0.966 -41.4455 126.8712)" class="st7" width="21.9" height="3.4"/>
							</g>
							<g>
								<polygon class="st7" points="447.1,212.6 448.4,215.7 468.6,207.3 467.4,204.2 								"/>
							</g>
							<g>
								<polygon class="st7" points="288.4,292.5 290.1,295.5 309.1,284.5 307.4,281.6 								"/>
								<polygon class="st7" points="442.4,203.6 444.1,206.5 463.1,195.5 461.4,192.6 								"/>
							</g>
							<g>
								<polygon class="st7" points="295.5,303.5 297.5,306.2 315,292.8 312.9,290.2 								"/>
								<polygon class="st7" points="436.5,195.2 438.6,197.9 456,184.5 453.9,181.8 								"/>
							</g>
							<g>
								<polygon class="st7" points="303.9,313.5 306.3,315.9 321.8,300.4 319.5,298 								"/>
								<polygon class="st7" points="429.6,187.7 432,190.1 447.5,174.5 445.2,172.1 								"/>
							</g>
							<g>
								<polygon class="st7" points="313.6,322.3 316.3,324.3 329.7,306.9 327,304.9 								"/>
								<polygon class="st7" points="421.8,181.1 424.5,183.2 437.9,165.7 435.2,163.7 								"/>
							</g>
							<g>
								<polygon class="st7" points="324.4,329.7 327.3,331.4 338.2,312.4 335.3,310.7 								"/>
								<polygon class="st7" points="413.2,175.6 416.2,177.3 427.1,158.3 424.2,156.6 								"/>
							</g>
							<g>
								<polygon class="st7" points="336,335.7 339.1,337 347.5,316.7 344.4,315.4 								"/>
								<polygon class="st7" points="404,171.3 407.1,172.6 415.5,152.3 412.4,151 								"/>
							</g>
							<g>
								
									<rect x="341.7" y="328.2" transform="matrix(0.2591 -0.9659 0.9659 0.2591 -57.3089 585.0662)" class="st7" width="22" height="3.4"/>
								
									<rect x="387.7" y="156.3" transform="matrix(0.2591 -0.9658 0.9658 0.2591 142.7863 502.1938)" class="st7" width="22" height="3.4"/>
							</g>
							<g>
								
									<rect x="353.1" y="330.6" transform="matrix(0.1307 -0.9914 0.9914 0.1307 -12.8996 649.8109)" class="st7" width="22" height="3.4"/>
								
									<rect x="376.3" y="154.1" transform="matrix(0.1307 -0.9914 0.9914 0.1307 182.2432 519.4041)" class="st7" width="22" height="3.4"/>
							</g>
							<path class="st7" d="M291.1,244c0,11.6,2.3,22.6,6.5,32.7l-7.7,3.2c-4.6-11.1-7.2-23.2-7.2-35.9c0-39.3,24.3-73,58.8-86.6
								l3.3,7.7C313.3,177.5,291.1,208.1,291.1,244z"/>
						</g>
						<g>
							<g>
								
									<image style="overflow:visible;opacity:0.2;enable-background:new    ;" width="231" height="232" xlink:href="DF32B64E.png"  transform="matrix(1 0 0 1 267 137)">
								</image>
								<g>
									
										<linearGradient id="SVGID_3_" gradientUnits="userSpaceOnUse" x1="457.1995" y1="174.6006" x2="300.6022" y2="331.1978" gradientTransform="matrix(1 0 0 -1 0 502)">
										<stop  offset="0" style="stop-color:#E5DFDF"/>
										<stop  offset="2.948955e-02" style="stop-color:#E6E1E1"/>
										<stop  offset="0.259" style="stop-color:#EFEDED"/>
										<stop  offset="0.4551" style="stop-color:#EFEDED"/>
										<stop  offset="1" style="stop-color:#EFEDED"/>
									</linearGradient>
									<ellipse class="st17" cx="375.9" cy="246.1" rx="100.1" ry="100.2"/>
								</g>
							</g>
							<g>
								
									<image style="overflow:visible;opacity:0.2;enable-background:new    ;" width="206" height="206" xlink:href="DF32B64D.png"  transform="matrix(1 0 0 1 280 150)">
								</image>
								<g>
									
										<linearGradient id="SVGID_4_" gradientUnits="userSpaceOnUse" x1="429.9018" y1="201.8982" x2="334.3493" y2="297.4508" gradientTransform="matrix(1 0 0 -1 0 502)">
										<stop  offset="0" style="stop-color:#EFEDED"/>
										<stop  offset="0.3236" style="stop-color:#EBE7E7"/>
										<stop  offset="1" style="stop-color:#E5DFDF"/>
									</linearGradient>
									<ellipse class="st18" cx="375.9" cy="246.1" rx="87.6" ry="87.7"/>
								</g>
							</g>
						</g>
					</g>
				</g>
			</g>
		</g>
	</g>
</g>
<image style="overflow:visible;" width="1261" height="392" xlink:href="C:\Users\theep\Downloads\Logo.png"  transform="matrix(0.1217 0 0 0.1348 296.2372 220.0729)">
</image>
</svg>
