<svg xmlns="http://www.w3.org/2000/svg" viewBox="0 0 813.75 589.83"><defs><style>.cls-1{fill:#00aeef;}.cls-2,.cls-3{fill:#fff;}.cls-3{font-size:109.33px;font-family:FuturisticArmour, Futuristic Armour;}.cls-4{letter-spacing:0.5em;}</style></defs><title>Asset 8</title><g id="Layer_2" data-name="Layer 2"><g id="Layer_1-2" data-name="Layer 1"><polygon class="cls-1" points="486.19 331.3 539.96 370.67 532.82 304.82 486.19 331.3"/><path class="cls-1" d="M397.66,282.49h-28a103,103,0,0,1-47.05,11.29h0A103.48,103.48,0,0,1,219.13,190.3h0A103.48,103.48,0,0,1,322.61,86.82h0a103,103,0,0,1,47.05,11.29h95.73L479.61,76,439.33,35.69,398.55,61.9a147.08,147.08,0,0,0-35.07-14.53L353.17,0h-57L285.9,47.37A147.25,147.25,0,0,0,250.83,61.9L210.05,35.69,169.77,76,196,116.75a147.64,147.64,0,0,0-14.52,35.07l-47.37,10.31v57l47.37,10.31A147.47,147.47,0,0,0,196,264.47l-26.2,40.79,40.28,40.27,40.78-26.2a147.64,147.64,0,0,0,35.07,14.52l10.31,47.37h57l10.31-47.37a147.47,147.47,0,0,0,35.07-14.52l12.55,8.06A91.06,91.06,0,0,1,397.66,282.49Z"/><path class="cls-1" d="M486.51,399a2.93,2.93,0,0,1,0-5.86A115.21,115.21,0,0,0,601.59,278.1a2.93,2.93,0,1,1,5.85,0A121.08,121.08,0,0,1,486.51,399Z"/><path class="cls-2" d="M637.34,275.17H620.56a2.93,2.93,0,1,0,0,5.86h10.89a144.09,144.09,0,0,1-18,67l-9.76-5.62a2.93,2.93,0,1,0-2.92,5.07l9.73,5.61a146.14,146.14,0,0,1-49,49.06l-5.61-9.74a2.93,2.93,0,1,0-5.07,2.92l5.62,9.76a144.1,144.1,0,0,1-67,18V412.1a2.93,2.93,0,0,0-5.85,0v16.83h2.93a149.88,149.88,0,0,0,75-20,2.87,2.87,0,0,0,.37-.15,2.47,2.47,0,0,0,.49-.36,151.89,151.89,0,0,0,54.46-54.5,2.72,2.72,0,0,0,.29-.38,3.06,3.06,0,0,0,.22-.49,150,150,0,0,0,20-74.92Z"/><path class="cls-2" d="M679.59,106.89h-44.1v13.28a2.93,2.93,0,1,1-5.85,0V106.89H596.42v13.28a2.93,2.93,0,1,1-5.85,0V106.89H557.36v13.28a2.93,2.93,0,1,1-5.85,0V106.89H518.3v13.28a2.93,2.93,0,0,1-5.86,0V106.89H479.23v13.28a2.93,2.93,0,1,1-5.85,0V106.89H323.8c-47.81,0-86.74,39.62-84.51,87.37a83.42,83.42,0,0,0,83.32,79.45H482.12a4.39,4.39,0,0,1,0,8.78H407.48a79,79,0,0,0,79,79,83.41,83.41,0,0,0,83.32-79.45c2.23-47.75-36.71-87.37-84.51-87.37H327a4.39,4.39,0,1,1,0-8.78H600.73A78.94,78.94,0,0,0,679.67,107h0A.08.08,0,0,0,679.59,106.89Z"/><text class="cls-3" transform="translate(0 579.16)"><tspan class="cls-4">SENSOR</tspan><tspan x="744.35" y="0">S</tspan></text></g></g></svg>